<?xml version="1.0" encoding="UTF-8"?> <svg xmlns="http://www.w3.org/2000/svg" width="102.792" height="37.286" viewBox="0 0 102.792 37.286"><g id="Group_14" data-name="Group 14" transform="translate(-2114.235 -530)"><g id="Layer_2" data-name="Layer 2" transform="translate(2114.234 530)"><g id="Isolation_Mode" data-name="Isolation Mode" transform="translate(0.001 0)"><path id="Path_1" data-name="Path 1" d="M67.817,19.016c-3.045,4.366-11.259,10.342-14.246,10.342-1.322,0-1.322-1.035-1.322-3.793a15.812,15.812,0,0,0-.23-3.674,11.326,11.326,0,0,0-3.473-2.425c-.3-.153-.853,0-.817.378.12,1.241.153,3.822.153,10.26,0,2.3.115,2.988.977,4.079A6.1,6.1,0,0,0,54.2,37.056a13.07,13.07,0,0,0,7.468-2.643,31.063,31.063,0,0,0,5.4-4.48,12.109,12.109,0,0,1-1.321,6.549c-2.069,3.274-5.551,3.611-8.653,3.611-3.432,0-5.61-.455-6.8-1.148a.3.3,0,0,0-.451.3c.608,2.879,2.83,5.506,10.048,5.506,5.973,0,8.961-2.355,10.224-4.827,1.379-2.583,1.666-4.826,1.666-14.533,0-1.553,0-3.389-3.963-6.378" transform="translate(-18.743 -7.468)" fill="#fff"></path><path id="Path_2" data-name="Path 2" d="M10.8,19.21c-2.529,0-6.436,3.448-9.307,6.895a8.381,8.381,0,0,1,1.836-.231c4.6,0,6.78,1.149,16.607,9.021.727.573,2.136,1.765,2.845,2.288.544.4.8.4,1.054.27a18.111,18.111,0,0,0,3.481-2.725c.072-.075.174-.217.107-.347a117.179,117.179,0,0,0-7.947-8.909C13.5,19.383,12.119,19.21,10.8,19.21" transform="translate(-0.586 -7.544)" fill="#fff"></path><path id="Path_3" data-name="Path 3" d="M4.634,35.186c-1.658-.17-4.289.137-4.617,3.34C-.223,40.871,2.259,43.15,6.2,43.554s4.537-2.54,4.609-3.226c.339-3.319-3.831-4.9-6.176-5.143" transform="translate(-0.001 -13.803)" fill="#fff"></path><path id="Path_4" data-name="Path 4" d="M135.832,19.21c-2.529,0-6.436,3.448-9.309,6.895a8.41,8.41,0,0,1,1.838-.231c4.6,0,6.782,1.149,16.608,9.021.726.573,2.138,1.765,2.845,2.288.542.4.8.4,1.054.27a18.107,18.107,0,0,0,3.481-2.725c.072-.075.175-.217.107-.347a117.092,117.092,0,0,0-7.948-8.909c-5.976-6.089-7.355-6.263-8.676-6.263" transform="translate(-49.686 -7.543)" fill="#fff"></path><path id="Path_5" data-name="Path 5" d="M130,35.186c-1.658-.17-4.289.137-4.617,3.341-.24,2.344,2.242,4.623,6.186,5.027s4.537-2.54,4.608-3.226c.339-3.319-3.832-4.9-6.177-5.143" transform="translate(-49.231 -13.803)" fill="#fff"></path><path id="Path_6" data-name="Path 6" d="M101.391,21.949c-1.272.028-2.915-.5-2.94-1.075a13.768,13.768,0,0,1,.589-2.695c.305-1.347.627-2.733.712-3.129.689-2.988,1.668-7.124,1.668-9.134,0-3.793-5.574-5-8.449-5.917a118.372,118.372,0,0,1,.747,13.556c0,1.437-.4,8.618-.4,10.225,0,.37.008.723.042,1.063a3.124,3.124,0,0,0,1.049,2.211c1.438,1.208,6.5,2.931,9.023,2.931,1.84,0,2.874-.8,4.023-2.931a68.806,68.806,0,0,0,2.413-6.959c-2.228.7-6.27,1.934-8.475,1.853" transform="translate(-36.51 0)" fill="#fff"></path></g></g></g></svg> 